<svg width="1350" height="438" viewBox="0 0 1350 438" fill="none" xmlns="http://www.w3.org/2000/svg">
<path d="M0 40C0 17.9086 17.9086 0 40 0H1131C1251.95 0 1350 98.0496 1350 219V219C1350 339.95 1251.95 438 1131 438H40C17.9086 438 0 420.091 0 398V40Z" fill="black"/>
<path d="M19 42C19 28.7452 29.7452 18 43 18H1133C1243.46 18 1333 107.543 1333 218V225H19V42Z" fill="#FAF7EE"/>
<path d="M19 213H912V396C912 409.255 901.255 420 888 420H43C29.7451 420 19 409.255 19 396V213Z" fill="#FAF7EE"/>
<path d="M912 219C912 98.0496 1010.05 0 1131 0V0C1251.95 0 1350 98.0496 1350 219V219C1350 339.95 1251.95 438 1131 438H952C929.909 438 912 420.091 912 398V219Z" fill="black"/>
<path d="M932 218C932 107.543 1021.54 18 1132 18V18C1242.46 18 1332 107.543 1332 218V218C1332 328.457 1242.46 418 1132 418H956C942.745 418 932 407.255 932 394V218Z" fill="#FAF7EE"/>
<circle cx="1132" cy="218" r="187" stroke="black" stroke-width="2"/>
</svg>
