<svg width="664" height="438" viewBox="0 0 664 438" fill="none" xmlns="http://www.w3.org/2000/svg">
<path d="M664 398C664 420.091 646.091 438 624 438L220 438C98.4974 438 8.61091e-06 339.503 1.9233e-05 218L3.47943e-05 39.9999C3.67256e-05 17.9086 17.9086 -5.64831e-05 40 -5.45518e-05L624 -3.49691e-06C646.091 -1.56562e-06 664 17.9086 664 40L664 398Z" fill="black"/>
<path d="M646 220C646 330.457 556.457 420 446 420L218 420C107.543 420 18 330.457 18 220L18 41.9999C18 28.7451 28.7452 17.9999 42 17.9999L622 18C635.255 18 646 28.7452 646 42L646 220Z" fill="#FAF7EE"/>
<circle cx="596" cy="68" r="9" transform="rotate(-180 596 68)" fill="black" stroke="black" stroke-width="2"/>
</svg>
