<svg width="1353" height="438" viewBox="0 0 1353 438" fill="none" xmlns="http://www.w3.org/2000/svg">
<path d="M0 219C0 98.0496 98.0496 0 219 0H1134C1254.95 0 1353 98.0496 1353 219V219C1353 339.95 1254.95 438 1134 438H219C98.0497 438 0 339.95 0 219V219Z" fill="black"/>
<path d="M18 219C18 108.543 107.543 18 218 18H1135C1245.46 18 1335 108.543 1335 219V219C1335 329.457 1245.46 420 1135 420H218C107.543 420 18 329.457 18 219V219Z" fill="#FAF7EE"/>
<path d="M1072 219C1072 239.889 1061.12 259.897 1041.2 278.208C1021.29 296.519 992.415 313.055 956.652 326.962C885.132 354.776 786.261 372 677 372C567.739 372 468.868 354.776 397.348 326.962C361.585 313.055 332.712 296.519 312.796 278.208C292.882 259.897 282 239.889 282 219C282 198.111 292.882 178.103 312.796 159.792C332.712 141.481 361.585 124.945 397.348 111.038C468.868 83.2243 567.739 66 677 66C786.261 66 885.132 83.2243 956.652 111.038C992.415 124.945 1021.29 141.481 1041.2 159.792C1061.12 178.103 1072 198.111 1072 219Z" fill="black" stroke="black" stroke-width="2"/>
<path d="M1037 219C1037 239.924 1027.08 259.941 1008.96 278.24C990.837 296.543 964.564 313.072 932.019 326.975C866.933 354.779 776.948 372 677.5 372C578.052 372 488.067 354.779 422.981 326.975C390.436 313.072 364.163 296.543 346.04 278.24C327.922 259.941 318 239.924 318 219C318 198.076 327.922 178.059 346.04 159.76C364.163 141.457 390.436 124.928 422.981 111.025C488.067 83.2213 578.052 66 677.5 66C776.948 66 866.933 83.2213 932.019 111.025C964.564 124.928 990.837 141.457 1008.96 159.76C1027.08 178.059 1037 198.076 1037 219Z" fill="#FAF7EE" stroke="black" stroke-width="2"/>
</svg>
