<svg width="1353" height="438" viewBox="0 0 1353 438" fill="none" xmlns="http://www.w3.org/2000/svg">
<path d="M1353 398C1353 420.091 1335.09 438 1313 438L219 438C98.0497 438 8.57177e-06 339.95 1.91456e-05 219V219C2.97194e-05 98.0495 98.0497 -0.000109711 219 -9.91374e-05L1313 -3.49691e-06C1335.09 -1.56562e-06 1353 17.9086 1353 40L1353 398Z" fill="black"/>
<path d="M1335 220C1335 330.457 1245.46 420 1135 420L218 420C107.543 420 18 329.457 18 219V219C18 108.543 107.543 17.9999 218 17.9999L1311 18C1324.25 18 1335 28.7452 1335 42L1335 220Z" fill="#FAF7EE"/>
<path fill-rule="evenodd" clip-rule="evenodd" d="M545.424 173C563.799 126.163 609.409 93 662.763 93C716.118 93 761.727 126.163 780.102 173L782.249 173C763.771 125.034 717.241 91 662.763 91C608.285 91 561.756 125.034 543.277 173L545.424 173ZM780.867 263C763.018 310.891 716.874 345 662.763 345C608.652 345 562.508 310.891 544.659 263L542.526 263C560.469 312.017 607.531 347 662.763 347C717.996 347 765.057 312.017 783 263L780.867 263Z" fill="black"/>
<path fill-rule="evenodd" clip-rule="evenodd" d="M545.266 173C561.658 115.354 608.341 74 663 74C717.659 74 764.342 115.354 780.734 173L782.805 173C766.343 114.365 718.927 72 663 72C607.073 72 559.657 114.365 543.195 173L545.266 173ZM781.015 263C764.881 321.168 717.975 363 663 363C608.025 363 561.119 321.168 544.985 263L542.918 263C559.119 322.152 606.756 365 663 365C719.244 365 766.881 322.152 783.082 263L781.015 263Z" fill="black"/>
</svg>
