<svg width="664" height="438" viewBox="0 0 664 438" fill="none" xmlns="http://www.w3.org/2000/svg">
<path d="M0 40C0 17.9086 17.9086 0 40 0H444C565.503 0 664 98.4974 664 220V398C664 420.091 646.091 438 624 438H40C17.9086 438 0 420.091 0 398V40Z" fill="black"/>
<path d="M18 218C18 107.543 107.543 18 218 18H446C556.457 18 646 107.543 646 218V396C646 409.255 635.255 420 622 420H42C28.7452 420 18 409.255 18 396V218Z" fill="#FAF7EE"/>
<circle cx="68" cy="370" r="9" fill="black" stroke="black" stroke-width="2"/>
</svg>
