<svg width="1353" height="438" viewBox="0 0 1353 438" fill="none" xmlns="http://www.w3.org/2000/svg">
<path d="M0 40C0 17.9086 17.9086 0 40 0H1313C1335.09 0 1353 17.9086 1353 40V218C1353 339.503 1254.5 438 1133 438H40C17.9086 438 0 420.091 0 398V40Z" fill="black"/>
<path d="M18 218C18 107.543 107.543 18 218 18H1135C1245.46 18 1335 108.543 1335 219V219C1335 329.457 1245.46 420 1135 420H42C28.7452 420 18 409.255 18 396V218Z" fill="#FAF7EE"/>
<circle cx="677" cy="91" r="9" fill="black" stroke="black" stroke-width="2"/>
<circle cx="677" cy="347" r="9" fill="black" stroke="black" stroke-width="2"/>
<path fill-rule="evenodd" clip-rule="evenodd" d="M794.576 265C776.201 311.837 730.591 345 677.237 345C623.882 345 578.273 311.837 559.898 265H557.751C576.229 312.966 622.759 347 677.237 347C731.715 347 778.244 312.966 796.723 265H794.576ZM559.133 175C576.982 127.109 623.126 93 677.237 93C731.348 93 777.492 127.109 795.341 175H797.474C779.531 125.983 732.469 91 677.237 91C622.004 91 574.943 125.983 557 175H559.133Z" fill="black"/>
</svg>
