<svg width="1353" height="858" viewBox="0 0 1353 858" fill="none" xmlns="http://www.w3.org/2000/svg">
<g clip-path="url(#clip0)">
<path d="M0 40C0 17.9086 17.9086 0 40 0H1313C1335.09 0 1353 17.9086 1353 40V638H40C17.9086 638 0 620.091 0 598V40Z" fill="#111111"/>
<path d="M18 42C18 28.7452 28.7452 18 42 18H1311C1324.25 18 1335 28.7452 1335 42V570C1335 583.255 1324.25 594 1311 594H42C28.7452 594 18 583.255 18 570V42Z" fill="#FAF7EE"/>
<rect x="6" y="345" width="86" height="86" rx="36" fill="#C4C4C4" stroke="#111111" stroke-width="24"/>
<rect x="18" y="18" width="1317" height="401" rx="24" fill="#FAF7EE"/>
<path d="M1294.18 365L58.8203 365C174.763 183.227 407.806 59 676.5 59C945.194 59 1178.24 183.227 1294.18 365Z" stroke="#111111" stroke-width="2"/>
<circle cx="68" cy="68" r="9" fill="#111111" stroke="#111111" stroke-width="2"/>
<circle cx="1285" cy="68" r="9" fill="#111111" stroke="#111111" stroke-width="2"/>
</g>
<path d="M0 419H1133C1254.5 419 1353 517.497 1353 639V818C1353 840.091 1335.09 858 1313 858H220C98.4974 858 0 759.503 0 638V419Z" fill="#111111"/>
<path d="M18 461C18 447.745 28.7452 437 42 437H1135C1245.46 437 1335 526.543 1335 637V816C1335 829.255 1324.25 840 1311 840H218C107.543 840 18 750.457 18 640V461Z" fill="#FAF7EE"/>
<path d="M147.419 584.204C175.141 584.204 197.838 609.994 197.838 642.102C197.838 674.21 175.141 700 147.419 700C119.696 700 97 674.21 97 642.102C97 609.994 119.697 584.204 147.419 584.204Z" fill="#111111" stroke="#111111" stroke-width="2"/>
<path d="M217.069 590.75C241.428 590.75 261.411 613.602 261.411 642.103C261.411 670.605 241.428 693.457 217.069 693.457C192.709 693.457 172.727 670.605 172.727 642.103C172.727 613.602 192.709 590.75 217.069 590.75Z" fill="#111111" stroke="#111111" stroke-width="2"/>
<path d="M283.91 599.163C304.922 599.163 322.175 618.677 322.175 643.038C322.175 667.398 304.922 686.912 283.91 686.912C262.898 686.912 245.645 667.398 245.645 643.038C245.645 618.677 262.898 599.163 283.91 599.163Z" fill="#111111" stroke="#111111" stroke-width="2"/>
<path d="M352.627 605.706C370.815 605.706 385.751 622.307 385.751 643.037C385.751 663.766 370.815 680.367 352.627 680.367C334.44 680.367 319.504 663.766 319.504 643.037C319.504 622.307 334.44 605.706 352.627 605.706Z" fill="#111111" stroke="#111111" stroke-width="2"/>
<path d="M419.94 612.252C435.036 612.252 447.454 625.93 447.454 643.038C447.454 660.146 435.036 673.824 419.94 673.824C404.844 673.824 392.426 660.146 392.426 643.038C392.426 625.93 404.844 612.252 419.94 612.252Z" fill="#111111" stroke="#111111" stroke-width="2"/>
<path d="M1207.58 699.999C1179.86 699.999 1157.16 674.209 1157.16 642.101C1157.16 609.993 1179.86 584.203 1207.58 584.203C1235.3 584.203 1258 609.993 1258 642.101C1258 674.209 1235.3 699.999 1207.58 699.999Z" fill="#111111" stroke="#111111" stroke-width="2"/>
<path d="M1137.93 693.455C1113.57 693.455 1093.59 670.603 1093.59 642.102C1093.59 613.6 1113.57 590.748 1137.93 590.748C1162.29 590.748 1182.27 613.6 1182.27 642.102C1182.27 670.603 1162.29 693.455 1137.93 693.455Z" fill="#111111" stroke="#111111" stroke-width="2"/>
<path d="M1071.09 685.042C1050.08 685.042 1032.82 665.528 1032.82 641.168C1032.82 616.807 1050.08 597.293 1071.09 597.293C1092.1 597.293 1109.36 616.807 1109.36 641.168C1109.36 665.528 1092.1 685.042 1071.09 685.042Z" fill="#111111" stroke="#111111" stroke-width="2"/>
<path d="M1002.37 678.497C984.185 678.497 969.249 661.896 969.249 641.166C969.249 620.437 984.185 603.836 1002.37 603.836C1020.56 603.836 1035.5 620.437 1035.5 641.166C1035.5 661.896 1020.56 678.497 1002.37 678.497Z" fill="#111111" stroke="#111111" stroke-width="2"/>
<path d="M935.06 671.953C919.964 671.953 907.546 658.275 907.546 641.167C907.546 624.059 919.964 610.381 935.06 610.381C950.156 610.381 962.574 624.059 962.574 641.167C962.574 658.275 950.156 671.953 935.06 671.953Z" fill="#111111" stroke="#111111" stroke-width="2"/>
<defs>
<clipPath id="clip0">
<path d="M0 40C0 17.9086 17.9086 0 40 0H1313C1335.09 0 1353 17.9086 1353 40V638H40C17.9086 638 0 620.091 0 598V40Z" fill="white"/>
</clipPath>
</defs>
</svg>
