<svg width="1353" height="438" viewBox="0 0 1353 438" fill="none" xmlns="http://www.w3.org/2000/svg">
<path d="M0 219C0 98.0496 98.0496 0 219 0H1134C1254.95 0 1353 98.0496 1353 219V219C1353 339.95 1254.95 438 1134 438H219C98.0497 438 0 339.95 0 219V219Z" fill="black"/>
<path d="M18 219C18 108.543 107.543 18 218 18H1135C1245.46 18 1335 108.543 1335 219V219C1335 329.457 1245.46 420 1135 420H218C107.543 420 18 329.457 18 219V219Z" fill="#FAF7EE"/>
<path d="M538.079 156L547.005 150.355C548.665 149.304 549.706 147.507 549.792 145.544L551.651 102.706C551.791 99.4967 554.433 96.9664 557.646 96.9664H602.523C604.555 96.9664 606.449 95.9377 607.556 94.233L631.984 56.5962C633.673 53.9932 637.069 53.108 639.814 54.555L674.895 73.0457C676.607 73.948 678.649 73.9692 680.379 73.1028L717.549 54.4908C720.355 53.0858 723.769 54.0802 725.382 56.7721L747.716 94.0501C748.8 95.8592 750.754 96.9664 752.863 96.9664H793.109C796.322 96.9664 798.964 99.4967 799.103 102.706L800.959 145.456C801.047 147.468 802.137 149.302 803.863 150.339L813.285 156M536.105 284L547.018 290.902C548.671 291.948 549.711 293.734 549.804 295.688L551.654 334.591C551.795 337.572 554.106 339.996 557.077 340.279L596.374 344.027C598.074 344.189 599.625 345.068 600.637 346.444L627.288 382.667C629.103 385.133 632.482 385.837 635.131 384.302L670.331 363.892C672.08 362.879 674.22 362.813 676.027 363.718L717.262 384.366C720.184 385.829 723.74 384.685 725.26 381.792L743.287 347.491C744.324 345.518 746.369 344.282 748.598 344.282H792.854C796.168 344.282 798.854 341.596 798.854 338.282V295.965C798.854 293.859 799.959 291.907 801.764 290.822L813.117 284" stroke="black" stroke-width="2"/>
<circle cx="68" cy="219" r="9" stroke="black" stroke-width="2"/>
<circle cx="1285" cy="217" r="9" stroke="black" stroke-width="2"/>
</svg>
