<svg width="1353" height="438" viewBox="0 0 1353 438" fill="none" xmlns="http://www.w3.org/2000/svg">
<path d="M0 40C0 17.9086 17.9086 0 40 0H1133C1254.5 0 1353 98.4974 1353 220V398C1353 420.091 1335.09 438 1313 438H220C98.4974 438 0 339.503 0 218V40Z" fill="black"/>
<path d="M18 42C18 28.7452 28.7452 18 42 18H1135C1245.46 18 1335 108.543 1335 219V219C1335 329.457 1245.46 420 1135 420H218C107.543 420 18 330.457 18 220V42Z" fill="#FAF7EE"/>
<path d="M1036 219C1036 237.955 1026.11 256.122 1007.99 272.758C989.875 289.394 963.601 304.422 931.05 317.063C865.954 342.343 775.958 358 676.5 358C577.042 358 487.046 342.343 421.95 317.063C389.399 304.422 363.125 289.394 345.006 272.758C326.888 256.122 317 237.955 317 219C317 200.045 326.888 181.878 345.006 165.242C363.125 148.606 389.399 133.578 421.95 120.937C487.046 95.6574 577.042 80 676.5 80C775.958 80 865.954 95.6574 931.05 120.937C963.601 133.578 989.875 148.606 1007.99 165.242C1026.11 181.878 1036 200.045 1036 219Z" stroke="black" stroke-width="2"/>
<path d="M1004 219C1004 237.99 994.987 256.166 978.514 272.79C962.036 289.419 938.143 304.439 908.538 317.075C849.333 342.346 767.473 358 677 358C586.527 358 504.666 342.346 445.462 317.075C415.857 304.439 391.964 289.419 375.486 272.79C359.013 256.166 350 237.99 350 219C350 200.01 359.013 181.834 375.486 165.21C391.964 148.581 415.857 133.561 445.462 120.925C504.666 95.6544 586.527 80 677 80C767.473 80 849.333 95.6544 908.538 120.925C938.143 133.561 962.036 148.581 978.514 165.21C994.987 181.834 1004 200.01 1004 219Z" stroke="black" stroke-width="2"/>
</svg>
