<svg width="1352" height="166" viewBox="0 0 1352 166" fill="none" xmlns="http://www.w3.org/2000/svg">
<path d="M522 83C522 94.0006 514.975 104.658 501.85 114.508C488.742 124.344 469.712 133.244 446.106 140.737C398.906 155.718 333.638 165 261.5 165C189.362 165 124.094 155.718 76.8941 140.737C53.2883 133.244 34.2578 124.344 21.1502 114.508C8.0252 104.658 1 94.0006 1 83C1 71.9994 8.0252 61.3417 21.1502 51.4925C34.2578 41.6563 53.2883 32.7558 76.8941 25.2633C124.094 10.282 189.362 1 261.5 1C333.638 1 398.906 10.282 446.106 25.2633C469.712 32.7558 488.742 41.6563 501.85 51.4925C514.975 61.3417 522 71.9994 522 83Z" stroke="black" stroke-width="2"/>
<path d="M936 83C936 94.0015 928.988 104.659 915.888 114.508C902.806 124.344 883.812 133.244 860.252 140.737C813.142 155.718 747.999 165 676 165C604.001 165 538.858 155.718 491.748 140.737C468.188 133.244 449.194 124.344 436.112 114.508C423.012 104.659 416 94.0015 416 83C416 71.9985 423.012 61.3408 436.112 51.4919C449.194 41.656 468.188 32.7555 491.748 25.2631C538.858 10.282 604.001 1 676 1C747.999 1 813.142 10.282 860.252 25.2631C883.812 32.7555 902.806 41.656 915.888 51.4919C928.988 61.3408 936 71.9985 936 83Z" stroke="black" stroke-width="2"/>
<path d="M1351 83C1351 94.0006 1343.97 104.658 1330.85 114.508C1317.74 124.344 1298.71 133.244 1275.11 140.737C1227.91 155.718 1162.64 165 1090.5 165C1018.36 165 953.094 155.718 905.894 140.737C882.288 133.244 863.258 124.344 850.15 114.508C837.025 104.658 830 94.0006 830 83C830 71.9994 837.025 61.3417 850.15 51.4925C863.258 41.6563 882.288 32.7558 905.894 25.2633C953.094 10.282 1018.36 1 1090.5 1C1162.64 1 1227.91 10.282 1275.11 25.2633C1298.71 32.7558 1317.74 41.6563 1330.85 51.4925C1343.97 61.3417 1351 71.9994 1351 83Z" stroke="black" stroke-width="2"/>
</svg>
