<svg width="96" height="96" viewBox="0 0 96 96" fill="none" xmlns="http://www.w3.org/2000/svg">
<path d="M47.9994 94.2097C73.5206 94.2097 94.2097 73.5207 94.2097 47.9994C94.2097 22.4781 73.5206 1.78906 47.9994 1.78906C22.4781 1.78906 1.78906 22.4781 1.78906 47.9994C1.78906 73.5207 22.4781 94.2097 47.9994 94.2097Z" fill="black"/>
<path d="M72 24H24C20.6996 24 18 26.7011 18 30V66C18 69.2989 20.6996 72 24 72H72C75.2989 72 78 69.2989 78 66V30C78 26.7011 75.2989 24 72 24ZM72 66H66V39.6006L48 51L30 39.6006V66H24V30H27.6006L48 42.6006L68.3994 30H72V66Z" fill="white"/>
</svg>
