<?xml version="1.0" encoding="utf-8"?>
<!-- Generator: Adobe Illustrator 25.1.0, SVG Export Plug-In . SVG Version: 6.00 Build 0)  -->
<svg version="1.1" id="Layer_1" xmlns="http://www.w3.org/2000/svg" xmlns:xlink="http://www.w3.org/1999/xlink" x="0px" y="0px"
	 viewBox="0 0 96 96" style="enable-background:new 0 0 96 96;" xml:space="preserve">
<g>
	<polygon points="48,42.6 27.6,30 24,30 24,66 30,66 30,39.6 48,51 66,39.6 66,66 72,66 72,30 68.4,30 	"/>
	<path d="M48,1.8C22.5,1.8,1.8,22.5,1.8,48S22.5,94.2,48,94.2c25.5,0,46.2-20.7,46.2-46.2S73.5,1.8,48,1.8z M78,66c0,3.3-2.7,6-6,6
		H24c-3.3,0-6-2.7-6-6V30c0-3.3,2.7-6,6-6h48c3.3,0,6,2.7,6,6V66z"/>
</g>
</svg>
