<svg width="1026" height="556" viewBox="0 0 1026 556" fill="none" xmlns="http://www.w3.org/2000/svg">
<path d="M162.199 116.999C177.799 44.3992 180.199 35.3992 204.799 31.7992L229.999 28.1992L233.599 10.7992C188.599 13.7992 131.599 13.7992 87.7992 10.7992L84.1992 28.1992L106.999 31.7992C130.399 35.3992 129.199 44.3992 114.199 116.999L70.9992 317.999C56.5992 388.199 53.5992 396.599 28.9992 400.199L4.39922 403.799L0.199219 421.199C45.7992 418.199 102.799 418.199 146.599 421.199L150.199 403.799L126.799 400.199C103.999 396.599 104.599 388.199 119.599 317.999L162.199 116.999ZM291.199 335.399L201.799 193.799L298.999 113.999C378.799 49.1992 405.199 31.7992 427.999 28.1992L440.599 25.7992L444.199 10.7992C389.599 13.7992 349.999 13.7992 301.999 10.7992L298.399 25.7992L310.399 28.1992C337.999 33.5992 331.999 56.3992 287.599 94.7992L153.799 208.199L289.399 421.199C317.599 418.799 345.199 418.799 372.199 421.199L375.799 403.799L361.999 401.999C343.999 399.599 323.599 388.199 291.199 335.399Z" fill="black"/>
<path d="M565.924 35.3992C565.924 15.5992 550.924 1.19922 531.724 1.19922C512.524 1.19922 497.524 15.5992 497.524 35.3992C497.524 53.9992 512.524 68.9992 531.724 68.9992C550.924 68.9992 565.924 53.9992 565.924 35.3992ZM481.324 162.599C490.324 162.599 492.124 168.599 492.124 178.199C492.124 211.199 438.724 355.199 438.724 395.399C438.724 415.799 450.124 428.399 471.724 428.399C513.724 428.399 536.524 382.799 553.324 345.599L539.524 338.999C528.124 367.799 505.924 396.599 492.124 396.599C486.124 396.599 483.124 392.999 483.124 385.799C483.124 365.999 537.124 215.399 537.124 167.399C537.124 145.199 526.324 128.999 504.724 128.999C468.124 128.999 446.524 161.399 427.324 211.199L440.524 217.799C451.924 190.799 468.724 162.599 481.324 162.599Z" fill="black"/>
<path d="M946.899 523.699C940.299 523.699 937.899 520.099 937.899 512.899C937.899 493.699 1025.49 247.799 1025.49 194.999C1025.49 151.799 1001.49 128.999 967.891 128.999C915.091 128.999 883.291 182.399 842.491 275.399L836.491 272.999C853.891 226.799 861.691 200.399 861.691 179.999C861.691 145.799 840.091 128.999 811.291 128.999C757.891 128.999 727.291 182.999 685.891 277.199L679.891 274.799C697.291 217.199 708.691 180.599 708.691 159.599C708.691 141.599 700.291 128.999 679.291 128.999C646.891 128.999 621.091 161.399 601.891 211.199L615.691 217.799C626.491 190.799 643.891 162.599 656.491 162.599C667.891 162.599 668.491 170.999 663.691 192.599L615.091 420.599C629.491 419.399 645.091 419.399 658.891 420.599C706.891 220.199 760.891 160.799 798.091 160.799C813.691 160.799 819.691 170.399 819.691 191.399C819.691 217.199 790.291 343.799 772.291 420.599C786.091 419.399 801.691 419.399 815.491 420.599C863.491 221.399 917.491 160.199 954.691 160.199C972.091 160.199 981.691 170.399 981.691 191.999C981.691 244.799 893.499 481.099 893.499 524.299C893.499 544.099 906.099 555.499 926.499 555.499C981.499 555.499 1012.5 463.999 1025.7 423.099L1012.5 416.499C998.999 457.999 967.499 523.699 946.899 523.699Z" fill="black"/>
<path d="M687.168 4.344V67H675.2L660.328 39.984C654.696 29.8933 649.651 20.536 645.192 11.912H645.016C645.192 21.944 645.28 31.9467 645.28 41.92V67H637.36V4.344H649.24L664.2 31.36C670.125 42.1547 675.171 51.512 679.336 59.432H679.512C679.336 49.4 679.248 39.3973 679.248 29.424V4.344H687.168ZM744.047 67L737.271 48.344H709.639L702.775 67H694.151L717.911 4.344H728.911L752.759 67H744.047ZM712.191 41.216H734.631L732.607 35.496C729.028 25.5813 726.007 17.0747 723.543 9.976H723.367C720.903 17.0747 717.882 25.5813 714.303 35.496L712.191 41.216ZM797.363 4.344V11.56H775.979V67H767.795V11.56H746.411V4.344H797.363ZM840.984 67L834.208 48.344H806.576L799.712 67H791.088L814.848 4.344H825.848L849.696 67H840.984ZM809.128 41.216H831.568L829.544 35.496C825.966 25.5813 822.944 17.0747 820.48 9.976H820.304C817.84 17.0747 814.819 25.5813 811.24 35.496L809.128 41.216ZM874.172 3.112C889.132 3.112 896.612 9.976 896.612 23.704H888.428C888.428 14.6107 883.647 10.064 874.084 10.064C870.212 10.064 867.161 10.944 864.932 12.704C862.761 14.464 861.676 16.84 861.676 19.832C861.676 22.9413 862.791 25.2293 865.02 26.696C867.249 28.1627 871.18 29.6 876.812 31.008C879.628 31.712 881.916 32.328 883.676 32.856C885.436 33.384 887.343 34.1467 889.396 35.144C891.449 36.1413 893.033 37.256 894.148 38.488C895.263 39.6613 896.201 41.216 896.964 43.152C897.727 45.0293 898.108 47.2293 898.108 49.752C898.108 55.384 896.055 59.872 891.948 63.216C887.9 66.56 882.473 68.232 875.668 68.232C868.276 68.232 862.527 66.3547 858.42 62.6C854.313 58.8453 852.26 53.3893 852.26 46.232H860.62C860.62 51.2773 861.94 55.0613 864.58 57.584C867.22 60.048 870.945 61.28 875.756 61.28C880.215 61.28 883.647 60.312 886.052 58.376C888.516 56.44 889.748 53.712 889.748 50.192C889.748 46.9653 888.633 44.648 886.404 43.24C884.175 41.832 880.185 40.3947 874.436 38.928C872.089 38.3413 870.153 37.8133 868.628 37.344C867.103 36.8747 865.431 36.288 863.612 35.584C861.852 34.88 860.415 34.088 859.3 33.208C858.244 32.328 857.217 31.3013 856.22 30.128C855.223 28.896 854.489 27.488 854.02 25.904C853.609 24.2613 853.404 22.4133 853.404 20.36C853.404 15.256 855.281 11.12 859.036 7.952C862.791 4.72533 867.836 3.112 874.172 3.112ZM959.037 4.344V67H950.853V38.048H918.909V67H910.813V4.344H918.909V30.92H950.853V4.344H959.037ZM1015.95 67L1009.18 48.344H981.545L974.681 67H966.057L989.817 4.344H1000.82L1024.67 67H1015.95ZM984.097 41.216H1006.54L1004.51 35.496C1000.93 25.5813 997.913 17.0747 995.449 9.976H995.273C992.809 17.0747 989.788 25.5813 986.209 35.496L984.097 41.216Z" fill="black"/>
<circle cx="532" cy="35" r="35" fill="#FAF7EE"/>
<path fill-rule="evenodd" clip-rule="evenodd" d="M530.902 1.01739C512.997 1.58535 498.585 15.9971 498.017 33.9022C510.052 33.8883 516.383 33.686 521.099 30.7418C523.79 29.0621 526.062 26.7901 527.742 24.0992C530.686 19.3828 530.888 13.0523 530.902 1.01739ZM530.903 68.9826C512.633 68.4035 498.001 53.4112 498 35.001C510.046 35.0147 516.381 35.2159 521.099 38.1614C523.79 39.8412 526.062 42.1131 527.742 44.804C530.774 49.6617 530.898 56.2315 530.903 68.9826ZM566 35.0002C566 53.7777 550.778 68.9999 532 69C532.005 56.2375 532.128 49.6639 535.161 44.804C536.841 42.1131 539.113 39.8412 541.804 38.1614C546.664 35.1277 553.238 35.0052 566 35.0002ZM532.001 1C550.411 1.00053 565.404 15.6334 565.983 33.903C553.232 33.898 546.662 33.7741 541.804 30.7418C539.113 29.0621 536.841 26.7901 535.161 24.0992C532.216 19.3805 532.015 13.0462 532.001 1Z" fill="black"/>
<circle cx="1009.5" cy="539.5" r="16.5" fill="black"/>
</svg>
