<svg width="39" height="40" viewBox="0 0 39 40" fill="none" xmlns="http://www.w3.org/2000/svg">
<path d="M21.9533 7.25586L21.9533 32.118H17.6465V21.3509L5.06855 21.3509L5.06855 32.118H0.761719L0.761719 7.25586L5.06855 7.25586L5.06855 17.9251L17.6465 17.9251V7.25586L21.9533 7.25586Z" fill="black"/>
<path d="M-0.000293732 35.1758L-0.00029392 39.4826L39 39.4826L39 35.1758L-0.000293732 35.1758Z" fill="black"/>
<path d="M-0.000293732 -1.70476e-06L-0.00029392 4.30683L39 4.30683L39 0L-0.000293732 -1.70476e-06Z" fill="black"/>
<path d="M26.1996 18.5124L38.6796 32.118H33.0024L21.9907 19.6869H21.8928L21.8928 32.118H17.5859L17.5859 7.25586L21.8928 7.25586V17.5825H21.9907L32.0236 7.25586L37.3582 7.25586L26.1996 18.5124Z" fill="black"/>
</svg>
