<svg width="115" height="115" viewBox="0 0 115 115" fill="none" xmlns="http://www.w3.org/2000/svg">
<path d="M57.4987 9.58398C31.1445 9.58398 9.58203 31.1465 9.58203 57.5007C9.58203 83.8548 31.1445 105.417 57.4987 105.417C83.8529 105.417 105.415 83.8548 105.415 57.5007C105.415 31.1465 83.8529 9.58398 57.4987 9.58398ZM80.9779 38.8132L72.832 78.1048C72.3529 80.9798 70.4362 81.459 68.5195 80.0215L56.0612 70.4382C53.1862 73.3132 50.3112 75.709 49.832 76.6673C48.8737 77.1465 48.3945 78.1048 47.4362 78.1048C45.9987 78.1048 45.9987 77.1465 45.5195 76.1882L41.207 61.8132L28.2695 57.5007C25.3945 56.5423 25.3945 54.6257 28.7487 53.1882L77.6237 34.5007C79.5404 34.0215 81.9362 34.9798 80.9779 38.8132ZM69.4779 43.1257L42.1654 60.3757L46.4779 74.7507L47.4362 65.1673L70.9154 44.084C72.3529 42.6465 71.3945 42.6465 69.4779 43.1257Z" fill="black"/>
</svg>
